<svg width="128" height="266" viewBox="0 0 128 266" fill="none" xmlns="http://www.w3.org/2000/svg">
<path fill-rule="evenodd" clip-rule="evenodd" d="M4.03754 0.0253906L4.05609 5.85938C5.633 5.85719 7.25984 5.9469 8.84222 6.00977C9.95464 9.12317 11.4827 10.7257 13.7348 12.998C12.7373 13.5613 11.7507 14.1447 10.7778 14.7471C-5.67337 24.9832 -2.71625 50.0171 15.7299 53.7881C20.5978 54.7819 25.6635 53.7701 29.7797 50.9814C37.5148 45.786 39.3625 35.6177 34.0873 27.9355L40.767 27.9521C40.972 39.9704 40.7918 52.4678 40.77 64.5254C33.0595 72.4316 28.9812 79.3467 29.7465 90.8447C30.5802 105.299 41.1909 117.31 55.4311 119.924C66.345 121.96 73.9198 117.715 84.811 127.304C89.6391 131.639 92.5511 137.712 92.9106 144.189C93.648 158.534 82.6781 169.836 68.5561 170.735C64.9674 170.965 61.2473 170.536 57.6313 170.779C49.8935 171.307 42.0375 175.248 36.9155 181.051C31.9603 186.706 29.438 194.091 29.8998 201.597C30.5066 210.354 34.448 215.944 40.8246 221.487C40.7918 226.782 40.7918 232.076 40.8246 237.367L29.7358 237.335C29.8232 241.123 29.8338 244.914 29.7709 248.702C19.6447 249.924 19.4097 257.476 19.6557 265.542C23.4575 265.383 27.6535 265.422 31.4662 265.49C56.91 265.947 82.7106 264.921 108.126 265.648C108.27 257.222 108.203 250.419 97.9223 248.752C97.8307 245.07 97.9023 241.131 97.9086 237.431L86.768 237.411C86.5693 217.174 86.7799 196.543 86.8149 176.281C84.6189 177.596 83.6384 178.153 81.2416 179.022L81.2582 237.39C78.9348 237.297 76.43 237.335 74.0912 237.329C74.3569 218.77 74.1069 199.839 74.1596 181.229C71.8284 181.781 70.885 181.814 68.4662 181.937L68.4496 237.411C65.0468 237.269 61.6406 237.285 58.2377 237.463L58.1948 202.95C58.1866 196.027 58.0359 188.835 58.2846 181.941C56.0107 182.327 54.9659 182.532 52.8286 183.33C52.5853 187.132 52.7475 193.307 52.7475 197.213L52.7768 223.067L52.7524 237.452L46.2963 237.428C46.2963 221.2 45.9116 203.704 46.3598 187.619C46.0483 187.912 45.7415 188.212 45.4409 188.516C40.4967 193.485 40.7372 198.181 40.7836 204.555L40.8139 213.43C27.6835 197.828 40.2155 177.29 59.1049 176.292C63.3767 176.065 67.5121 176.571 71.8315 175.997C88.934 173.718 100.968 157.796 98.1567 140.719C95.9457 127.555 85.5322 117.3 72.3373 115.292C69.6925 114.873 65.5281 114.726 62.8715 114.87C46.6552 115.748 33.6201 102.23 35.3393 86.0303C35.9488 80.2759 37.4737 77.5378 40.8657 72.8486L40.7836 85.0732C40.7372 93.6062 40.6172 96.4843 46.2885 103.324L46.3022 27.9482C48.3383 28.0682 50.5879 28.0082 52.6459 27.9951C53.1406 36.5295 52.7608 48.7859 52.769 57.5723C52.84 74.2036 52.8047 90.8357 52.6625 107.467C54.5673 108.446 56.101 108.886 58.1616 109.333L58.1371 28.0303C61.5481 27.98 65.0334 28.0149 68.4526 28.0146C68.8708 54.8776 68.3817 82.5526 68.4828 109.517C70.3873 109.557 72.2369 109.805 74.1293 110.023C73.8995 90.9482 74.2983 71.6581 74.1264 52.5703C74.0532 44.4544 74.2721 36.1835 74.0258 28.082L81.1703 28.0791C81.5582 36.6366 81.2445 47.9158 81.2426 56.6201L81.2446 111.808C83.4274 112.727 84.8113 113.522 86.7993 114.769L86.7485 28.0117C89.0892 28.0462 91.5708 27.9826 93.9233 27.9629C93.4524 28.5767 93.0147 29.2156 92.6127 29.877C90.5976 33.2251 90.2159 37.6722 91.228 41.4219C92.4267 45.901 95.4 49.698 99.4614 51.9355C103.834 54.3777 108.741 54.7743 113.525 53.3789C118.63 51.8901 122.934 48.4333 125.489 43.7695C128.181 38.7338 128.734 32.8268 127.023 27.3789C124.725 19.9524 120.625 16.4799 114.036 13.0439C116.372 10.7861 118.112 9.02608 119.221 5.88867L124.039 5.87402L124.067 0L4.03754 0.0253906ZM29.02 254.576C30.1445 254.207 93.2148 254.171 98.478 254.516C100.122 255.36 103.282 257.425 102.747 259.584C101.566 260.453 37.4432 259.961 29.1069 259.985C28.1229 259.985 25.9613 260.1 25.1577 259.77C24.8844 259.174 24.8187 258.851 25.0756 258.22C25.6606 256.763 27.544 255.065 29.02 254.576ZM92.3657 243.025C92.4034 244.971 92.4374 246.841 92.3989 248.787L35.3471 248.875C35.1011 246.847 35.3087 245.029 35.1694 243.045L92.3657 243.025ZM40.893 119.987C40.6197 121.808 40.8244 132.409 40.8217 134.894L40.8354 170.96C41.9998 170.173 43.2708 169.399 44.4653 168.642C44.7523 168.45 45.8946 167.953 46.2719 167.778C46.2446 153.806 46.7314 136.75 46.1274 123.064C44.1184 122.228 42.656 121.226 40.893 119.987ZM53.0092 125.309C52.6159 126.072 52.7772 161.858 52.7553 165.856C54.3023 165.504 55.9315 165.269 57.5004 165.012L57.9536 164.913C58.4399 163.838 58.1778 129.665 58.145 125.825C56.2756 125.757 55.2256 125.59 53.3862 125.295L53.0092 125.309ZM68.8461 126.314C68.1958 127.422 68.4881 161.735 68.4936 165.305L72.1235 164.561C73.0435 164.342 73.1333 164.375 73.9418 163.839C74.2976 162.411 74.1231 153.551 74.1176 151.607C74.0895 143.493 74.1052 135.38 74.1664 127.266C72.7494 126.951 71.2713 126.667 69.8442 126.377C69.6321 126.341 69.0813 126.325 68.8461 126.314ZM81.6469 131.988C80.9379 133.057 81.2275 156.654 81.2338 160.168L83.5649 157.399C85.7938 154.111 86.8436 151.46 87.0248 147.516C87.3741 139.915 86.5715 137.539 81.6469 131.988ZM15.3452 18.625C20.1747 16.5041 28.2866 17.0459 33.6821 17.0566L53.7094 17.0986C70.72 17.1128 88.1738 16.8578 105.123 17.085C110.451 17.3405 114.825 18.8187 118.442 22.9365C121.374 26.2793 122.837 30.6625 122.5 35.0967C121.879 42.9936 115.007 49.3602 107.035 48.6426C103.862 48.3613 100.94 46.8007 98.9418 44.3203C93.34 37.4128 97.3899 26.9097 106.706 28.1221C113.218 28.9694 112.605 36.2828 108.331 38.6152L107.67 38.0957C107.796 36.732 108.132 35.8436 107.796 34.6162C106.253 32.8334 104.054 33.5432 102.673 35.04C100.441 37.6183 101.708 40.0828 104.114 41.9189C107.995 44.8819 113.262 42.7221 115.607 38.9814C119.147 33.334 116.081 25.6067 110.027 23.2344C108.806 22.7561 106.745 22.6547 105.417 22.5088C99.2431 22.3844 93.0426 22.4506 86.8618 22.4629L52.476 22.4775L31.4272 22.4922C28.1856 22.4908 23.0201 22.2499 19.9536 22.7178C16.384 23.9223 13.8172 25.4212 12.0161 28.9629C10.6906 31.5406 10.4579 34.5439 11.3735 37.2939C13.6585 44.0078 23.5962 45.7733 25.9496 39.1768C26.4307 37.8348 26.311 36.3497 25.6196 35.1025C24.1518 32.4987 18.6497 32.4258 20.7182 37.8447C19.5866 38.8672 17.6903 37.2601 16.9496 36.4404C15.1215 34.4236 16.6379 29.9855 18.8735 28.9102C26.6961 25.1456 33.0787 32.8676 31.0014 40.3418C30.1459 43.3661 28.0625 45.8945 25.2582 47.3125C13.817 53.1842 1.90047 40.2699 6.43207 28.042C8.01463 23.8321 11.229 20.4374 15.3452 18.625ZM112.44 5.80371C111.597 7.96463 109.599 9.94142 107.726 11.2637C103.575 11.5351 98.0869 11.3854 93.8422 11.3838L69.7309 11.3672L37.0961 11.3662C31.7609 11.3632 25.6765 11.4943 20.3959 11.3164C19.3492 10.5599 18.9776 10.302 18.0893 9.3916C16.8048 8.01224 16.2935 7.39206 15.2221 5.84375L78.3578 5.92578C89.0756 5.93098 101.889 6.24537 112.44 5.80371Z" fill="url(#paint0_linear_3_70)"/>
<defs>
<linearGradient id="paint0_linear_3_70" x1="128.01" y1="7.938" x2="21.1383" y2="247.1" gradientUnits="userSpaceOnUse">
<stop stop-color="#D4B876"/>
<stop offset="1" stop-color="#C4A265"/>
</linearGradient>
</defs>
</svg>
