<svg width="1272" height="429" viewBox="0 0 1272 429" fill="none" xmlns="http://www.w3.org/2000/svg">
<path d="M335.558 32.0044L335.577 37.8384C337.154 37.8362 338.78 37.9259 340.363 37.9888C341.475 41.1022 343.003 42.7047 345.255 44.9771C344.258 45.5403 343.271 46.1238 342.298 46.7261C325.847 56.9622 328.804 81.9961 347.25 85.7671C352.118 86.7609 357.184 85.7491 361.3 82.9604C369.035 77.765 370.883 67.5967 365.608 59.9146L372.288 59.9312C372.493 71.9494 372.312 84.4468 372.29 96.5044C364.58 104.411 360.502 111.326 361.267 122.824C362.101 137.278 372.711 149.289 386.952 151.903C397.865 153.939 405.44 149.694 416.331 159.283C421.16 163.618 424.072 169.691 424.431 176.168C425.169 190.513 414.199 201.815 400.077 202.714C396.488 202.944 392.768 202.515 389.152 202.758C381.414 203.286 373.558 207.227 368.436 213.03C363.481 218.685 360.959 226.07 361.42 233.576C362.027 242.333 365.969 247.923 372.345 253.466C372.312 258.761 372.312 264.055 372.345 269.346L361.256 269.314C361.344 273.102 361.354 276.893 361.291 280.681C351.165 281.903 350.93 289.455 351.176 297.521C354.978 297.362 359.174 297.401 362.987 297.469C388.43 297.926 414.231 296.9 439.647 297.627C439.791 289.201 439.723 282.398 429.443 280.731C429.351 277.049 429.423 273.11 429.429 269.41L418.289 269.39C418.09 249.153 418.3 228.522 418.335 208.26C416.139 209.575 415.159 210.132 412.762 211.001L412.779 269.369C410.455 269.276 407.951 269.314 405.612 269.308C405.877 250.749 405.627 231.818 405.68 213.208C403.349 213.76 402.405 213.793 399.987 213.916L399.97 269.39C396.567 269.248 393.161 269.264 389.758 269.442L389.715 234.929C389.707 228.006 389.556 220.814 389.805 213.92C387.531 214.306 386.486 214.511 384.349 215.309C384.106 219.111 384.268 225.286 384.268 229.192L384.297 255.046L384.273 269.431L377.817 269.407C377.817 253.179 377.432 235.683 377.88 219.598C377.569 219.891 377.262 220.191 376.961 220.495C372.017 225.464 372.258 230.16 372.304 236.534L372.334 245.409C359.204 229.807 371.736 209.269 390.625 208.271C394.897 208.044 399.033 208.55 403.352 207.976C420.454 205.697 432.489 189.775 429.677 172.698C427.466 159.534 417.053 149.279 403.858 147.271C401.213 146.852 397.049 146.705 394.392 146.849C378.176 147.727 365.141 134.209 366.86 118.009C367.469 112.255 368.994 109.517 372.386 104.828L372.304 117.052C372.258 125.585 372.138 128.463 377.809 135.303L377.823 59.9272C379.859 60.0472 382.108 59.9872 384.166 59.9741C384.661 68.5085 384.281 80.7649 384.289 89.5513C384.361 106.183 384.325 122.815 384.183 139.446C386.088 140.425 387.622 140.865 389.682 141.312L389.658 60.0093C393.069 59.959 396.554 59.9939 399.973 59.9937C400.391 86.8566 399.902 114.532 400.003 141.496C401.908 141.536 403.757 141.784 405.65 142.002C405.42 122.927 405.819 103.637 405.647 84.5493C405.574 76.4334 405.793 68.1625 405.546 60.061L412.691 60.0581C413.079 68.6156 412.765 79.8948 412.763 88.5991L412.765 143.787C414.948 144.706 416.332 145.501 418.32 146.748L418.269 59.9907C420.61 60.0252 423.091 59.9616 425.444 59.9419C424.973 60.5557 424.535 61.1946 424.133 61.856C422.118 65.2041 421.736 69.6512 422.748 73.4009C423.947 77.88 426.92 81.677 430.982 83.9146C435.355 86.3567 440.261 86.7533 445.045 85.3579C450.15 83.8691 454.454 80.4123 457.009 75.7485C459.701 70.7128 460.254 64.8058 458.543 59.3579C456.245 51.9314 452.146 48.4589 445.556 45.0229C447.893 42.7651 449.632 41.0051 450.742 37.8677L455.56 37.853L455.587 31.979L335.558 32.0044ZM360.54 286.555C361.665 286.186 424.735 286.15 429.998 286.495C431.642 287.339 434.803 289.404 434.267 291.563C433.087 292.432 368.964 291.94 360.627 291.964C359.643 291.964 357.482 292.079 356.678 291.749C356.405 291.153 356.339 290.83 356.596 290.199C357.181 288.742 359.065 287.044 360.54 286.555ZM423.886 275.004C423.924 276.95 423.958 278.82 423.919 280.766L366.868 280.854C366.622 278.826 366.829 277.008 366.69 275.024L423.886 275.004ZM372.414 151.966C372.14 153.787 372.345 164.388 372.342 166.873L372.356 202.939C373.52 202.152 374.791 201.378 375.986 200.621C376.273 200.429 377.415 199.932 377.792 199.757C377.765 185.785 378.252 168.729 377.648 155.043C375.639 154.207 374.176 153.205 372.414 151.966ZM384.53 157.288C384.136 158.051 384.298 193.837 384.276 197.835C385.823 197.483 387.452 197.248 389.021 196.991L389.474 196.892C389.96 195.817 389.698 161.644 389.665 157.804C387.796 157.736 386.746 157.569 384.907 157.274L384.53 157.288ZM400.367 158.293C399.716 159.401 400.009 193.714 400.014 197.284L403.644 196.54C404.564 196.321 404.654 196.354 405.462 195.818C405.818 194.39 405.644 185.53 405.638 183.586C405.61 175.472 405.626 167.359 405.687 159.245C404.27 158.93 402.792 158.646 401.365 158.356C401.153 158.32 400.602 158.304 400.367 158.293ZM413.167 163.967C412.458 165.036 412.748 188.633 412.754 192.147L415.085 189.378C417.314 186.09 418.364 183.439 418.545 179.495C418.895 171.894 418.092 169.518 413.167 163.967ZM346.866 50.604C351.695 48.4831 359.807 49.0249 365.203 49.0356L385.23 49.0776C402.24 49.0918 419.694 48.8368 436.644 49.064C441.971 49.3195 446.345 50.7977 449.962 54.9155C452.895 58.2583 454.358 62.6415 454.021 67.0757C453.399 74.9726 446.527 81.3392 438.555 80.6216C435.382 80.3403 432.461 78.7797 430.462 76.2993C424.86 69.3919 428.91 58.8887 438.227 60.1011C444.738 60.9484 444.126 68.2618 439.851 70.5942L439.191 70.0747C439.316 68.711 439.653 67.8226 439.317 66.5952C437.773 64.8124 435.575 65.5222 434.194 67.019C431.961 69.5973 433.229 72.0618 435.634 73.8979C439.516 76.8609 444.783 74.7011 447.127 70.9604C450.667 65.313 447.601 57.5857 441.547 55.2134C440.327 54.7351 438.266 54.6337 436.938 54.4878C430.764 54.3634 424.563 54.4296 418.382 54.4419L383.997 54.4565L362.948 54.4712C359.706 54.4698 354.541 54.2289 351.474 54.6968C347.905 55.9013 345.338 57.4002 343.537 60.9419C342.211 63.5196 341.978 66.5229 342.894 69.2729C345.179 75.9868 355.117 77.7523 357.47 71.1558C357.951 69.8138 357.832 68.3287 357.14 67.0815C355.672 64.4777 350.17 64.4048 352.239 69.8237C351.107 70.8462 349.211 69.2391 348.47 68.4194C346.642 66.4026 348.158 61.9645 350.394 60.8892C358.217 57.1246 364.599 64.8466 362.522 72.3208C361.666 75.3451 359.583 77.8735 356.779 79.2915C345.337 85.1632 333.421 72.2489 337.953 60.021C339.535 55.8111 342.75 52.4164 346.866 50.604ZM443.96 37.7827C443.118 39.9436 441.119 41.9204 439.247 43.2427C435.096 43.5141 429.607 43.3644 425.363 43.3628L401.251 43.3462L368.617 43.3452C363.281 43.3422 357.197 43.4733 351.916 43.2954C350.87 42.5389 350.498 42.281 349.61 41.3706C348.325 39.9912 347.814 39.3711 346.743 37.8228L409.878 37.9048C420.596 37.91 433.409 38.2244 443.96 37.7827Z" fill="url(#paint0_linear_3_68)"/>
<path d="M30.56 288V280.08C35.36 280.08 39.04 278.8 41.6 276.24C44.16 273.68 46.24 270.16 47.84 265.68C49.6 261.2 51.6 256 53.84 250.08L103.28 115.44H109.04L162.56 252C163.84 255.36 165.28 259.68 166.88 264.96C168.48 270.24 169.12 274.72 168.8 278.4C171.52 278.24 174.24 278.08 176.96 277.92C179.68 277.76 182.4 277.6 185.12 277.44V288H130.16V280.08C136.24 279.92 140.24 278.56 142.16 276C144.08 273.44 144.8 270.4 144.32 266.88C143.84 263.36 143.04 260.16 141.92 257.28L133.52 234.72L71.12 236.16L62.72 261.84C61.6 265.68 60.56 268.72 59.6 270.96C58.8 273.2 57.84 275.68 56.72 278.4C59.92 278.24 63.04 278.08 66.08 277.92C69.28 277.76 72.4 277.6 75.44 277.44V288H30.56ZM74.72 225.84H130.16L113.12 180C111.36 175.04 109.52 170.16 107.6 165.36C105.84 160.4 104.08 155.44 102.32 150.48H101.84C100.24 154.96 98.56 159.44 96.8 163.92C95.2 168.4 93.52 172.96 91.76 177.6L74.72 225.84ZM278.954 225.84C278.954 218.8 277.994 213.76 276.074 210.72C274.154 207.68 271.114 205.84 266.954 205.2C262.794 204.56 257.274 204.4 250.394 204.72L232.874 205.44V260.4C232.874 264.72 232.794 268.4 232.634 271.44C232.634 274.48 232.474 277.04 232.154 279.12L277.994 278.4C285.034 278.24 291.114 277.12 296.234 275.04C301.354 272.8 305.354 268.96 308.234 263.52C311.114 258.08 312.554 250.64 312.554 241.2H320.714L319.274 288H195.434V280.08C201.514 279.76 205.674 278.4 207.914 276C210.154 273.44 211.354 270 211.514 265.68C211.834 261.2 211.994 256.16 211.994 250.56V146.88C211.994 143.68 212.074 140.64 212.234 137.76C212.394 134.72 212.554 132 212.714 129.6C209.834 129.76 206.954 129.92 204.074 130.08C201.194 130.24 198.314 130.4 195.434 130.56V120H310.874L312.074 162H304.154C304.154 152.56 302.714 145.44 299.834 140.64C296.954 135.68 293.034 132.4 288.074 130.8C283.274 129.04 277.834 128.24 271.754 128.4L251.114 128.88C245.194 129.04 240.954 130.16 238.394 132.24C235.834 134.32 234.234 137.44 233.594 141.6C233.114 145.6 232.874 150.88 232.874 157.44V195.84L277.994 196.08L276.314 175.44H286.874V225.84H278.954Z" fill="#FAF7F0"/>
<path d="M556.72 225.84C556.72 218.8 555.76 213.76 553.84 210.72C551.92 207.68 548.88 205.84 544.72 205.2C540.56 204.56 535.04 204.4 528.16 204.72L510.64 205.44V260.4C510.64 264.72 510.56 268.4 510.4 271.44C510.4 274.48 510.24 277.04 509.92 279.12L555.76 278.4C562.8 278.24 568.88 277.12 574 275.04C579.12 272.8 583.12 268.96 586 263.52C588.88 258.08 590.32 250.64 590.32 241.2H598.48L597.04 288H473.2V280.08C479.28 279.76 483.44 278.4 485.68 276C487.92 273.44 489.12 270 489.28 265.68C489.6 261.2 489.76 256.16 489.76 250.56V146.88C489.76 143.68 489.84 140.64 490 137.76C490.16 134.72 490.32 132 490.48 129.6C487.6 129.76 484.72 129.92 481.84 130.08C478.96 130.24 476.08 130.4 473.2 130.56V120H588.64L589.84 162H581.92C581.92 152.56 580.48 145.44 577.6 140.64C574.72 135.68 570.8 132.4 565.84 130.8C561.04 129.04 555.6 128.24 549.52 128.4L528.88 128.88C522.96 129.04 518.72 130.16 516.16 132.24C513.6 134.32 512 137.44 511.36 141.6C510.88 145.6 510.64 150.88 510.64 157.44V195.84L555.76 196.08L554.08 175.44H564.64V225.84H556.72ZM622.497 288V280.08C628.577 279.76 632.737 278.4 634.977 276C637.217 273.44 638.417 270 638.577 265.68C638.897 261.2 639.057 256.16 639.057 250.56V146.88C639.057 143.68 639.137 140.64 639.297 137.76C639.457 134.72 639.617 132 639.777 129.6C636.897 129.76 634.017 129.92 631.137 130.08C628.257 130.24 625.377 130.4 622.497 130.56V120C631.457 119.84 640.497 119.68 649.617 119.52C658.897 119.36 668.177 119.44 677.457 119.76C692.977 119.92 705.457 121.76 714.897 125.28C724.497 128.64 731.537 133.52 736.017 139.92C740.497 146.16 742.737 153.76 742.737 162.72C742.897 168.96 741.697 175.36 739.137 181.92C736.737 188.32 732.257 194.08 725.697 199.2C719.297 204.32 710.017 208.16 697.857 210.72C701.057 212.96 703.857 215.84 706.257 219.36C708.657 222.88 711.377 226.96 714.417 231.6L730.737 257.28C733.457 261.6 736.097 265.52 738.657 269.04C741.217 272.4 744.177 275.12 747.537 277.2C750.897 279.12 755.057 280.08 760.017 280.08V288H729.777C725.137 283.84 721.217 279.68 718.017 275.52C714.977 271.36 711.777 266.64 708.417 261.36L692.337 235.68C690.257 232.32 687.857 228.48 685.137 224.16C682.577 219.68 679.617 215.92 676.257 212.88C673.697 213.04 670.977 213.12 668.097 213.12C665.377 213.12 662.657 213.04 659.937 212.88V259.44C659.937 263.76 659.857 267.52 659.697 270.72C659.697 273.76 659.537 276.32 659.217 278.4C661.137 278.24 663.057 278.16 664.977 278.16C666.897 278 668.817 277.84 670.737 277.68C672.657 277.52 674.577 277.44 676.497 277.44V288H622.497ZM674.817 204C683.617 203.68 691.297 202.24 697.857 199.68C704.577 197.12 709.857 193.04 713.697 187.44C717.537 181.84 719.457 174.48 719.457 165.36C719.457 159.28 718.577 154 716.817 149.52C715.217 144.88 712.657 141.04 709.137 138C705.617 134.96 701.137 132.72 695.697 131.28C690.257 129.68 683.857 128.88 676.497 128.88C670.577 128.88 666.417 130.08 664.017 132.48C661.777 134.88 660.497 138.24 660.177 142.56C660.017 146.72 659.937 151.68 659.937 157.44V203.52C662.497 203.68 664.897 203.84 667.137 204C669.537 204.16 672.097 204.16 674.817 204ZM904.48 291.84L808.72 163.2C807.28 161.28 805.84 159.44 804.4 157.68C803.12 155.76 801.76 153.84 800.32 151.92H800.08L800.8 254.64C800.8 258.64 800.8 262.64 800.8 266.64C800.8 270.64 800.64 274.56 800.32 278.4C803.2 278.24 806.08 278.08 808.96 277.92C811.84 277.76 814.72 277.6 817.6 277.44V288H773.68V280.08C778.64 280.08 782.16 279.04 784.24 276.96C786.48 274.72 787.92 272.16 788.56 269.28C789.2 266.24 789.52 263.52 789.52 261.12L789.76 145.68C789.76 142.96 789.76 140.24 789.76 137.52C789.76 134.8 789.76 132.16 789.76 129.6C787.2 129.76 784.56 129.92 781.84 130.08C779.12 130.24 776.4 130.4 773.68 130.56V120H802.24L892.24 240.48C894.32 243.2 896.32 245.92 898.24 248.64C900.32 251.36 902.4 254.08 904.48 256.8H904.72L904.96 146.88C904.96 143.68 905.04 140.64 905.2 137.76C905.36 134.72 905.52 132 905.68 129.6C902.8 129.76 899.92 129.92 897.04 130.08C894.16 130.24 891.28 130.4 888.4 130.56V120H932.56V127.92C926.64 128.08 922.56 129.44 920.32 132C918.08 134.56 916.88 138 916.72 142.32C916.56 146.64 916.48 151.68 916.48 157.44L916 291.84H904.48ZM941.372 288V280.08C946.173 280.08 949.853 278.8 952.413 276.24C954.973 273.68 957.053 270.16 958.652 265.68C960.413 261.2 962.413 256 964.653 250.08L1014.09 115.44H1019.85L1073.37 252C1074.65 255.36 1076.09 259.68 1077.69 264.96C1079.29 270.24 1079.93 274.72 1079.61 278.4C1082.33 278.24 1085.05 278.08 1087.77 277.92C1090.49 277.76 1093.21 277.6 1095.93 277.44V288H1040.97V280.08C1047.05 279.92 1051.05 278.56 1052.97 276C1054.89 273.44 1055.61 270.4 1055.13 266.88C1054.65 263.36 1053.85 260.16 1052.73 257.28L1044.33 234.72L981.933 236.16L973.533 261.84C972.413 265.68 971.373 268.72 970.413 270.96C969.613 273.2 968.653 275.68 967.533 278.4C970.733 278.24 973.853 278.08 976.893 277.92C980.093 277.76 983.213 277.6 986.253 277.44V288H941.372ZM985.533 225.84H1040.97L1023.93 180C1022.17 175.04 1020.33 170.16 1018.41 165.36C1016.65 160.4 1014.89 155.44 1013.13 150.48H1012.65C1011.05 154.96 1009.37 159.44 1007.61 163.92C1006.01 168.4 1004.33 172.96 1002.57 177.6L985.533 225.84Z" fill="#FAF7F0"/>
<line x1="460" y1="335.5" x2="1240" y2="335.5" stroke="#C4A265" stroke-width="3"/>
<path d="M785.72 372.08V381.4H795.88V384.4H785.72V394H797.08V397H782.08V369.08H797.08V372.08H785.72ZM825.628 369.12L815.108 397H810.908L800.388 369.12H804.268L813.028 393.16L821.788 369.12H825.628ZM833.259 372.08V381.4H843.419V384.4H833.259V394H844.619V397H829.619V369.08H844.619V372.08H833.259ZM872.047 397H868.407L853.767 374.8V397H850.127V369.08H853.767L868.407 391.24V369.08H872.047V397ZM895.412 369.12V372.08H887.812V397H884.172V372.08H876.532V369.12H895.412ZM908.733 397.28C906.893 397.28 905.239 396.96 903.773 396.32C902.333 395.653 901.199 394.747 900.373 393.6C899.546 392.427 899.119 391.08 899.093 389.56H902.973C903.106 390.867 903.639 391.973 904.573 392.88C905.533 393.76 906.919 394.2 908.733 394.2C910.466 394.2 911.826 393.773 912.813 392.92C913.826 392.04 914.333 390.92 914.333 389.56C914.333 388.493 914.039 387.627 913.453 386.96C912.866 386.293 912.133 385.787 911.253 385.44C910.373 385.093 909.186 384.72 907.693 384.32C905.853 383.84 904.373 383.36 903.253 382.88C902.159 382.4 901.213 381.653 900.413 380.64C899.639 379.6 899.253 378.213 899.253 376.48C899.253 374.96 899.639 373.613 900.413 372.44C901.186 371.267 902.266 370.36 903.653 369.72C905.066 369.08 906.679 368.76 908.493 368.76C911.106 368.76 913.239 369.413 914.893 370.72C916.573 372.027 917.519 373.76 917.733 375.92H913.733C913.599 374.853 913.039 373.92 912.053 373.12C911.066 372.293 909.759 371.88 908.133 371.88C906.613 371.88 905.373 372.28 904.413 373.08C903.453 373.853 902.973 374.947 902.973 376.36C902.973 377.373 903.253 378.2 903.813 378.84C904.399 379.48 905.106 379.973 905.933 380.32C906.786 380.64 907.973 381.013 909.493 381.44C911.333 381.947 912.813 382.453 913.933 382.96C915.053 383.44 916.013 384.2 916.812 385.24C917.613 386.253 918.013 387.64 918.013 389.4C918.013 390.76 917.653 392.04 916.933 393.24C916.213 394.44 915.146 395.413 913.733 396.16C912.319 396.907 910.653 397.28 908.733 397.28Z" fill="#F5F0E8"/>
<defs>
<linearGradient id="paint0_linear_3_68" x1="459.531" y1="39.917" x2="352.659" y2="279.079" gradientUnits="userSpaceOnUse">
<stop stop-color="#D4B876"/>
<stop offset="1" stop-color="#C4A265"/>
</linearGradient>
</defs>
</svg>
